<svg xmlns="http://www.w3.org/2000/svg" viewBox="0 0 1100 420" width="1100" height="420" role="img" aria-label="Jacob Joseph — Level 10, Rank D, 218 contributions">
<title>Jacob Joseph — Level 10, Rank D, 218 contributions</title>
<defs><pattern id="scan" width="3" height="3" patternUnits="userSpaceOnUse"><rect width="3" height="1" fill="#E6EDF7" opacity="0.04"/></pattern></defs>
<style>/*<![CDATA[*/*{transform-box:fill-box}
text{font-family:ui-monospace, "JetBrains Mono", "Cascadia Code", "DejaVu Sans Mono", Menlo, Consolas, monospace;white-space:pre}
.bar{transform-origin:0% 50%;animation:fill 1.1s cubic-bezier(.2,.9,.3,1) .35s both}
@keyframes fill{from{transform:scaleX(0)}to{transform:scaleX(1)}}
.tw{animation:tw 2.6s steps(48) 1.1s both}
@keyframes tw{from{clip-path:inset(0 100% 0 0)}to{clip-path:inset(0 0 0 0)}}
.st{animation:pop .5s cubic-bezier(.2,1.6,.35,1) both}
@keyframes pop{0%{opacity:0;transform:translateY(7px)}100%{opacity:1;transform:translateY(0)}}
.mote{animation:drift linear infinite backwards}
@keyframes drift{0%{opacity:0;transform:translateY(0)}20%{opacity:.5}100%{opacity:0;transform:translateY(-90px)}}
.sig{transform-origin:50% 50%;animation:spin 40s linear infinite}
@keyframes spin{to{transform:rotate(360deg)}}/*]]>*/</style>
<rect width="1100" height="420" rx="14" fill="#04060D"/><rect x="1" y="1" width="1098" height="418" rx="13" fill="none" stroke="#22D3EE" stroke-width="1.2" opacity="0.45"/><rect width="1100" height="420" rx="14" fill="url(#scan)"/><text x="34" y="46" font-size="13" font-weight="700" letter-spacing="6" fill="#22D3EE">[ S T A T U S ]</text><text x="1066" y="46" text-anchor="end" font-size="15" fill="#6F7F99">⨯</text><line x1="34" y1="62" x2="1066" y2="62" stroke="#18213A" stroke-width="1"/><g><text x="34" y="92" font-size="9.5" letter-spacing="2.4" fill="#6F7F99">NAME</text><text x="34" y="111" font-size="16" font-weight="700" letter-spacing="0.6" fill="#E6EDF7">Jacob Joseph</text></g><g><text x="34" y="132" font-size="9.5" letter-spacing="2.4" fill="#6F7F99">CLASS</text><text x="34" y="151" font-size="16" font-weight="700" letter-spacing="0.6" fill="#E6EDF7">Embedded Systems Engineer</text></g><g><text x="504" y="92" font-size="9.5" letter-spacing="2.4" fill="#6F7F99">LEVEL</text><text x="504" y="111" font-size="16" font-weight="700" letter-spacing="0.6" fill="#FFC53D">10</text></g><g><text x="674" y="92" font-size="9.5" letter-spacing="2.4" fill="#6F7F99">RANK</text><text x="674" y="111" font-size="16" font-weight="700" letter-spacing="0.6" fill="#A855F7">D</text></g><g><text x="504" y="132" font-size="9.5" letter-spacing="2.4" fill="#6F7F99">TITLE</text><text x="504" y="151" font-size="16" font-weight="700" letter-spacing="0.6" fill="#E6EDF7">Shadow of Safety-Critical</text></g><g><text x="844" y="132" font-size="9.5" letter-spacing="2.4" fill="#6F7F99">GUILD</text><text x="844" y="151" font-size="16" font-weight="700" letter-spacing="0.6" fill="#E6EDF7">Leipzig, DE</text></g><g><text x="38" y="206" font-size="11" font-weight="700" letter-spacing="2" fill="#6F7F99">HP</text><rect x="68" y="196" width="330" height="12" rx="6" fill="#0E1524" stroke="#18213A" stroke-width="0.8"/><rect x="68" y="196" width="299.75" height="12" rx="6" fill="#A855F7" class="bar" style="animation-delay:.35s"/><text x="410" y="206" font-size="11" fill="#E6EDF7">218 contributions</text></g><g><text x="38" y="232" font-size="11" font-weight="700" letter-spacing="2" fill="#6F7F99">MP</text><rect x="68" y="222" width="330" height="12" rx="6" fill="#0E1524" stroke="#18213A" stroke-width="0.8"/><rect x="68" y="222" width="71.5" height="12" rx="6" fill="#22D3EE" class="bar" style="animation-delay:.5s"/><text x="410" y="232" font-size="11" fill="#E6EDF7">13-day longest streak</text></g><g opacity="0" class="st" style="animation-delay:1.3s"><rect x="34" y="258" width="186" height="62" rx="8" fill="#0E1524" stroke="#18213A" stroke-width="1"/><rect x="34" y="258" width="3" height="62" rx="1.5" fill="#FFC53D" opacity="0.9"/><text x="50" y="282" font-size="11" font-weight="700" letter-spacing="2.6" fill="#22D3EE">STR</text><text x="204" y="284" text-anchor="end" font-size="21" font-weight="700" fill="#E6EDF7">208</text><text x="50" y="304" font-size="9" fill="#6F7F99">commits</text></g><g opacity="0" class="st" style="animation-delay:1.41s"><rect x="236" y="258" width="186" height="62" rx="8" fill="#0E1524" stroke="#18213A" stroke-width="1"/><rect x="236" y="258" width="3" height="62" rx="1.5" fill="#A855F7" opacity="0.9"/><text x="252" y="282" font-size="11" font-weight="700" letter-spacing="2.6" fill="#22D3EE">AGI</text><text x="406" y="284" text-anchor="end" font-size="21" font-weight="700" fill="#E6EDF7">0</text><text x="252" y="304" font-size="9" fill="#6F7F99">pull requests</text></g><g opacity="0" class="st" style="animation-delay:1.52s"><rect x="438" y="258" width="186" height="62" rx="8" fill="#0E1524" stroke="#18213A" stroke-width="1"/><rect x="438" y="258" width="3" height="62" rx="1.5" fill="#A855F7" opacity="0.9"/><text x="454" y="282" font-size="11" font-weight="700" letter-spacing="2.6" fill="#22D3EE">INT</text><text x="608" y="284" text-anchor="end" font-size="21" font-weight="700" fill="#E6EDF7">13</text><text x="454" y="304" font-size="9" fill="#6F7F99">repos + langs</text></g><g opacity="0" class="st" style="animation-delay:1.63s"><rect x="640" y="258" width="186" height="62" rx="8" fill="#0E1524" stroke="#18213A" stroke-width="1"/><rect x="640" y="258" width="3" height="62" rx="1.5" fill="#A855F7" opacity="0.9"/><text x="656" y="282" font-size="11" font-weight="700" letter-spacing="2.6" fill="#22D3EE">VIT</text><text x="810" y="284" text-anchor="end" font-size="21" font-weight="700" fill="#E6EDF7">13</text><text x="656" y="304" font-size="9" fill="#6F7F99">longest streak</text></g><g opacity="0" class="st" style="animation-delay:1.74s"><rect x="842" y="258" width="186" height="62" rx="8" fill="#0E1524" stroke="#18213A" stroke-width="1"/><rect x="842" y="258" width="3" height="62" rx="1.5" fill="#A855F7" opacity="0.9"/><text x="858" y="282" font-size="11" font-weight="700" letter-spacing="2.6" fill="#22D3EE">PER</text><text x="1012" y="284" text-anchor="end" font-size="21" font-weight="700" fill="#E6EDF7">0</text><text x="858" y="304" font-size="9" fill="#6F7F99">reviews + issues</text></g><circle cx="40" cy="300" r="1" fill="#A855F7" opacity="0" class="mote" style="animation-duration:6s;animation-delay:0s"/><circle cx="137" cy="322" r="1.5" fill="#A855F7" opacity="0" class="mote" style="animation-duration:7.4s;animation-delay:-0.8s"/><circle cx="234" cy="344" r="2" fill="#A855F7" opacity="0" class="mote" style="animation-duration:8.8s;animation-delay:-1.6s"/><circle cx="331" cy="366" r="1" fill="#A855F7" opacity="0" class="mote" style="animation-duration:10.2s;animation-delay:-2.4s"/><circle cx="428" cy="300" r="1.5" fill="#A855F7" opacity="0" class="mote" style="animation-duration:11.6s;animation-delay:-3.2s"/><circle cx="525" cy="322" r="2" fill="#A855F7" opacity="0" class="mote" style="animation-duration:6s;animation-delay:-4s"/><circle cx="622" cy="344" r="1" fill="#A855F7" opacity="0" class="mote" style="animation-duration:7.4s;animation-delay:-4.8s"/><circle cx="719" cy="366" r="1.5" fill="#A855F7" opacity="0" class="mote" style="animation-duration:8.8s;animation-delay:-5.6s"/><circle cx="816" cy="300" r="2" fill="#A855F7" opacity="0" class="mote" style="animation-duration:10.2s;animation-delay:-6.4s"/><circle cx="913" cy="322" r="1" fill="#A855F7" opacity="0" class="mote" style="animation-duration:11.6s;animation-delay:-7.2s"/><circle cx="1010" cy="344" r="1.5" fill="#A855F7" opacity="0" class="mote" style="animation-duration:6s;animation-delay:-8s"/><circle cx="87" cy="366" r="2" fill="#A855F7" opacity="0" class="mote" style="animation-duration:7.4s;animation-delay:-8.8s"/><g class="tw"><text x="34" y="356" font-size="11.5" letter-spacing="0.5" fill="#22D3EE" opacity="0.9">[SYSTEM] Daily quest complete. Rewards distributed.</text></g><text x="34" y="380" font-size="9.5" fill="#6F7F99">47 active days · 0-day current streak · updated 2026-08-22</text><g transform="translate(1030 380)"><polygon class="sig" points="0,-15 12.99,-7.5 12.99,7.5 0,15 -12.99,7.5 -12.99,-7.5" fill="none" stroke="#22D3EE" stroke-width="1.2" opacity="0.5"/><circle r="4" fill="#A855F7" opacity="0.85"/></g><path d="M12 30L12 12L30 12" fill="none" stroke="#22D3EE" stroke-width="1.6" opacity="0.6"/><path d="M1088 30L1088 12L1070 12" fill="none" stroke="#22D3EE" stroke-width="1.6" opacity="0.6"/><path d="M12 390L12 408L30 408" fill="none" stroke="#22D3EE" stroke-width="1.6" opacity="0.6"/><path d="M1088 390L1088 408L1070 408" fill="none" stroke="#22D3EE" stroke-width="1.6" opacity="0.6"/>
</svg>